<svg xmlns="http://www.w3.org/2000/svg" viewBox="0 0 128 128">
  <defs>
    <linearGradient id="bg" x1="20" y1="16" x2="108" y2="112" gradientUnits="userSpaceOnUse">
      <stop offset="0" stop-color="#7aa2f7"/>
      <stop offset="1" stop-color="#2f5fda"/>
    </linearGradient>
    <linearGradient id="lid" x1="36" y1="34" x2="92" y2="56" gradientUnits="userSpaceOnUse">
      <stop offset="0" stop-color="#d9e4ff"/>
      <stop offset="1" stop-color="#9fb9ff"/>
    </linearGradient>
  </defs>
  <rect x="8" y="8" width="112" height="112" rx="28" fill="#131722"/>
  <rect x="14" y="14" width="100" height="100" rx="22" fill="url(#bg)"/>
  <path d="M33 44h24l7-8h31c3.3 0 6 2.7 6 6v8H27v-2c0-2.2 1.8-4 4-4h2z" fill="url(#lid)"/>
  <path d="M27 50h74v32c0 6.6-5.4 12-12 12H39c-6.6 0-12-5.4-12-12V50z" fill="#f4f7ff"/>
  <path d="M27 50h74v10H27z" fill="#d8e3ff"/>
  <path d="M51 62h10l8 11 8-11h10L74 79l14 17H77L69 85 61 96H50l14-17-13-17z" fill="#2f5fda"/>
</svg>
